<svg width="101" height="96" viewBox="0 0 101 96" xmlns="http://www.w3.org/2000/svg" xmlns:sketch="http://www.bohemiancoding.com/sketch/ns"><title>SOS Logo</title><desc>SOS by Stefano Vetere from the Noun Project</desc><g sketch:type="MSPage" fill="#FF2727"><path d="M58.669 54.887v-13.774c0-5.7-4.354-8.676-8.664-8.676-4.311 0-8.676 2.976-8.676 8.676v13.773c0 5.688 4.365 8.677 8.676 8.677 4.309 0 8.664-2.988 8.664-8.676zm-13.772 0v-13.774c0-3.522 2.571-5.109 5.108-5.109 2.539 0 5.097 1.587 5.097 5.109v13.773c0 3.522-2.559 5.099-5.097 5.099-2.537 0-5.108-1.576-5.108-5.098zM27.042 59.985c-2.537 0-5.108-1.576-5.108-5.099 0-.985-.799-1.781-1.781-1.781-.986 0-1.784.796-1.784 1.781 0 5.688 4.365 8.677 8.673 8.677 4.311 0 8.676-2.988 8.676-8.677 0-5.873-4.692-7.439-8.116-8.576-3.721-1.247-5.668-2.047-5.668-5.197 0-3.522 2.571-5.109 5.108-5.109 2.539 0 5.101 1.587 5.101 5.109 0 .984.797 1.783 1.781 1.783.997 0 1.794-.799 1.794-1.783 0-5.7-4.365-8.676-8.676-8.676-4.308 0-8.673 2.976-8.673 8.676 0 5.874 4.681 7.439 8.106 8.577 3.729 1.247 5.667 2.035 5.667 5.196.001 3.523-2.561 5.099-5.1 5.099zM72.958 36.004c2.537 0 5.107 1.587 5.107 5.109 0 .984.8 1.783 1.783 1.783.984 0 1.782-.799 1.782-1.783 0-5.7-4.365-8.676-8.673-8.676-4.312 0-8.667 2.976-8.667 8.676 0 5.874 4.684 7.439 8.106 8.577 3.721 1.247 5.668 2.035 5.668 5.196 0 3.522-2.57 5.099-5.107 5.099-2.539 0-5.101-1.576-5.101-5.099 0-.985-.796-1.781-1.782-1.781-.984 0-1.784.796-1.784 1.781 0 5.688 4.355 8.677 8.667 8.677 4.308 0 8.673-2.988 8.673-8.677 0-5.873-4.681-7.439-8.106-8.576-3.718-1.247-5.667-2.047-5.667-5.197 0-3.522 2.562-5.109 5.101-5.109zM9.18 75.554c0 .982.809 1.781 1.794 1.781h78.065c.983 0 1.784-.799 1.784-1.781 0-.987-.801-1.785-1.784-1.785h-78.065c-.985 0-1.794.797-1.794 1.785zM90.823 20.447c0-.984-.801-1.782-1.784-1.782h-78.065c-.985 0-1.794.798-1.794 1.782 0 .985.809 1.783 1.794 1.783h78.065c.983 0 1.784-.797 1.784-1.783zM98.217 55.401c-.984 0-1.781.799-1.781 1.783v27.546c0 7.133-6.651 7.395-7.396 7.405h-78.066c-.755-.011-7.396-.272-7.396-7.405v-34.941h7.396c.983 0 1.784-.799 1.784-1.794 0-.985-.8-1.784-1.784-1.784h-9.19c-.984 0-1.784.799-1.784 1.784v36.735c0 8.687 7.176 10.973 10.974 10.973h78.065c3.785 0 10.961-2.286 10.961-10.973v-27.545c0-.985-.798-1.784-1.783-1.784zM89.039.297h-78.065c-3.798 0-10.974 2.287-10.974 10.962v27.557c0 .986.8 1.783 1.784 1.783s1.794-.797 1.794-1.783v-27.557c0-7.121 6.641-7.385 7.396-7.395h78.053c.758.01 7.409.273 7.409 7.395v34.952h-7.396c-.996 0-1.796.799-1.796 1.784 0 .995.8 1.794 1.796 1.794h9.178c.985 0 1.783-.799 1.783-1.794v-36.736c-.001-8.675-7.177-10.962-10.962-10.962z" sketch:type="MSShapeGroup"/></g></svg>